<svg width="52" height="53" viewBox="0 0 52 53" fill="none" xmlns="http://www.w3.org/2000/svg">
<circle cx="26" cy="26.3368" r="26" fill="#3485FF"/>
<path d="M34 35.3368V33.3368C34 32.2759 33.5786 31.2585 32.8284 30.5084C32.0783 29.7582 31.0609 29.3368 30 29.3368H22C20.9391 29.3368 19.9217 29.7582 19.1716 30.5084C18.4214 31.2585 18 32.2759 18 33.3368V35.3368" stroke="#FAFAFA" stroke-width="2" stroke-linecap="round" stroke-linejoin="round"/>
<path d="M26 25.3368C28.2091 25.3368 30 23.5459 30 21.3368C30 19.1277 28.2091 17.3368 26 17.3368C23.7909 17.3368 22 19.1277 22 21.3368C22 23.5459 23.7909 25.3368 26 25.3368Z" stroke="#FAFAFA" stroke-width="2" stroke-linecap="round" stroke-linejoin="round"/>
</svg>
