<svg width="14" height="18" viewBox="0 0 14 18" fill="none" xmlns="http://www.w3.org/2000/svg">
<path d="M11.9999 5.83504H11.1666V4.16838C11.1666 1.86838 9.29992 0.00170898 6.99992 0.00170898C4.69992 0.00170898 2.83325 1.86838 2.83325 4.16838V5.83504H1.99992C1.08325 5.83504 0.333252 6.58504 0.333252 7.50171V15.835C0.333252 16.7517 1.08325 17.5017 1.99992 17.5017H11.9999C12.9166 17.5017 13.6666 16.7517 13.6666 15.835V7.50171C13.6666 6.58504 12.9166 5.83504 11.9999 5.83504ZM6.99992 13.335C6.08325 13.335 5.33325 12.585 5.33325 11.6684C5.33325 10.7517 6.08325 10.0017 6.99992 10.0017C7.91658 10.0017 8.66658 10.7517 8.66658 11.6684C8.66658 12.585 7.91658 13.335 6.99992 13.335ZM9.58325 5.83504H4.41658V4.16838C4.41658 2.74338 5.57492 1.58504 6.99992 1.58504C8.42492 1.58504 9.58325 2.74338 9.58325 4.16838V5.83504Z" fill="#A5B0C1"/>
</svg>
