<svg width="16" height="23" viewBox="0 0 16 23" fill="none" xmlns="http://www.w3.org/2000/svg">
<path d="M4 5.33679V3.33679C4 2.80636 4.21071 2.29765 4.58579 1.92258C4.96086 1.54751 5.46957 1.33679 6 1.33679H10C10.5304 1.33679 11.0391 1.54751 11.4142 1.92258C11.7893 2.29765 12 2.80636 12 3.33679V5.33679M15 5.33679V19.3368C15 19.8672 14.7893 20.3759 14.4142 20.751C14.0391 21.1261 13.5304 21.3368 13 21.3368H3C2.46957 21.3368 1.96086 21.1261 1.58579 20.751C1.21071 20.3759 1 19.8672 1 19.3368V5.33679H15Z" stroke="#E83F5B" stroke-width="2" stroke-linecap="round" stroke-linejoin="round"/>
</svg>
