<svg width="24" height="25" viewBox="0 0 24 25" fill="none" xmlns="http://www.w3.org/2000/svg">
<path d="M3 6.51318H5H21" stroke="#E83F5B" stroke-width="2" stroke-linecap="round" stroke-linejoin="round"/>
<path d="M8 6.51318V4.51318C8 3.98275 8.21071 3.47404 8.58579 3.09897C8.96086 2.7239 9.46957 2.51318 10 2.51318H14C14.5304 2.51318 15.0391 2.7239 15.4142 3.09897C15.7893 3.47404 16 3.98275 16 4.51318V6.51318M19 6.51318V20.5132C19 21.0436 18.7893 21.5523 18.4142 21.9274C18.0391 22.3025 17.5304 22.5132 17 22.5132H7C6.46957 22.5132 5.96086 22.3025 5.58579 21.9274C5.21071 21.5523 5 21.0436 5 20.5132V6.51318H19Z" stroke="#E83F5B" stroke-width="2" stroke-linecap="round" stroke-linejoin="round"/>
</svg>
